<svg xmlns="http://www.w3.org/2000/svg" viewBox="0 0 512 512" fill="none" role="img" aria-label="VS">
  <defs>
    <linearGradient id="vsRim" x1="40" y1="32" x2="480" y2="480" gradientUnits="userSpaceOnUse">
      <stop stop-color="#FF2BD6"/>
      <stop offset="0.5" stop-color="#B026FF"/>
      <stop offset="1" stop-color="#00F0FF"/>
    </linearGradient>
    <linearGradient id="vsV" x1="80" y1="120" x2="300" y2="420" gradientUnits="userSpaceOnUse">
      <stop stop-color="#FF6AE8"/>
      <stop offset="1" stop-color="#E012C4"/>
    </linearGradient>
    <linearGradient id="vsS" x1="300" y1="120" x2="460" y2="420" gradientUnits="userSpaceOnUse">
      <stop stop-color="#8CFFFF"/>
      <stop offset="1" stop-color="#00C4E8"/>
    </linearGradient>
  </defs>

  <rect width="512" height="512" fill="#000"/>

  <path
    fill="#05050A"
    stroke="url(#vsRim)"
    stroke-width="7"
    d="M36 92 L92 36 H420 L476 92 V420 L420 476 H92 L36 420 Z"
  />
  <path
    fill="none"
    stroke="#00F0FF"
    stroke-width="1.25"
    opacity="0.4"
    d="M58 104 L104 58 H408 L454 104 V408 L408 454 H104 L58 408 Z"
  />

  <g stroke="url(#vsRim)" stroke-width="5" stroke-linecap="square" fill="none">
    <path d="M76 116V76h40"/>
    <path d="M396 76h40v40"/>
    <path d="M76 396v40h40"/>
    <path d="M396 436h40v-40"/>
  </g>

  <!-- Geometric V -->
  <path fill="url(#vsV)" d="M64 126h64L186 388 236 126h64L210 422h-64z"/>

  <!-- Geometric S -->
  <g fill="url(#vsS)">
    <rect x="316" y="126" width="132" height="46"/>
    <rect x="316" y="126" width="46" height="150"/>
    <rect x="316" y="248" width="132" height="46"/>
    <rect x="402" y="248" width="46" height="128"/>
    <rect x="316" y="376" width="132" height="46"/>
  </g>
</svg>
